# xmcd
#
# Track frame offsets: 
#        150
#        17239
#        41603
#        63656
#        83500
#        99180
#        115584
#        140383
#        159782
#        181419
#
# Disc length: 2667 seconds
#
# Revision: 0
# Processed by: cddbd v1.5.2PL0 Copyright (c) Steve Scherf et al.
# Submitted via: ExactAudioCopyFreeDBPlugin 1.0
#
DISCID=700a690a
DTITLE=Jolie Holland and Samantha Parton - Wildflower Blues
DYEAR=2017
DGENRE=Bluegrass
TTITLE0=You Are Not Needed Now
TTITLE1=Wildflower Blues
TTITLE2=Make It Up To Me
TTITLE3=Little Black Bear (Blue Rooms Version)
TTITLE4=Jocko's Lament
TTITLE5=The Last
TTITLE6=Minstel Boy
TTITLE7=Biding My Time
TTITLE8=Johnny Said To May
TTITLE9=Gooseberry Rag
EXTD=
EXTT0=
EXTT1=
EXTT2=
EXTT3=
EXTT4=
EXTT5=
EXTT6=
EXTT7=
EXTT8=
EXTT9=
PLAYORDER=
